{
	"asset":{
		"generator":"Khronos glTF Blender I/O v5.1.20",
		"version":"2.0"
	},
	"scene":0,
	"scenes":[
		{
			"name":"Scene",
			"nodes":[
				0
			]
		}
	],
	"nodes":[
		{
			"mesh":0,
			"name":"cbp4",
			"rotation":[
				0.70710688829422,
				0,
				0,
				0.7071066498756409
			],
			"translation":[
				1.0033478736877441,
				0.18012237548828125,
				0.24674105644226074
			]
		}
	],
	"materials":[
		{
			"doubleSided":true,
			"name":"TeamPrimary",
			"pbrMetallicRoughness":{
				"baseColorFactor":[
					0.23100000619888306,
					0.4309999942779541,
					0.9139999747276306,
					1
				],
				"metallicFactor":0.05999999865889549,
				"roughnessFactor":0.8199999928474426
			}
		}
	],
	"meshes":[
		{
			"name":"cbp4.001",
			"primitives":[
				{
					"attributes":{
						"POSITION":0,
						"NORMAL":1
					},
					"indices":2,
					"material":0
				}
			]
		}
	],
	"accessors":[
		{
			"bufferView":0,
			"componentType":5126,
			"count":4428,
			"max":[
				0.4585426151752472,
				0.2917661666870117,
				-0.0135704530403018
			],
			"min":[
				-0.4497370719909668,
				-0.5463641881942749,
				-0.8741441369056702
			],
			"type":"VEC3"
		},
		{
			"bufferView":1,
			"componentType":5126,
			"count":4428,
			"type":"VEC3"
		},
		{
			"bufferView":2,
			"componentType":5123,
			"count":7914,
			"type":"SCALAR"
		}
	],
	"bufferViews":[
		{
			"buffer":0,
			"byteLength":53136,
			"byteOffset":0,
			"target":34962
		},
		{
			"buffer":0,
			"byteLength":53136,
			"byteOffset":53136,
			"target":34962
		},
		{
			"buffer":0,
			"byteLength":15828,
			"byteOffset":106272,
			"target":34963
		}
	],
	"buffers":[
		{
			"byteLength":122100,
			"uri":"scene.bin"
		}
	]
}
