{
	"asset":{
		"generator":"Khronos glTF Blender I/O v5.1.20",
		"version":"2.0"
	},
	"scene":0,
	"scenes":[
		{
			"name":"Scene",
			"nodes":[
				0
			]
		}
	],
	"nodes":[
		{
			"mesh":0,
			"name":"wasp_lowpoly"
		}
	],
	"materials":[
		{
			"doubleSided":true,
			"name":"TeamBlue",
			"pbrMetallicRoughness":{
				"baseColorFactor":[
					0.23100000619888306,
					0.4309999942779541,
					0.9139999747276306,
					1
				],
				"metallicFactor":0.07999999821186066,
				"roughnessFactor":0.8600000143051147
			}
		}
	],
	"meshes":[
		{
			"name":"Object_0",
			"primitives":[
				{
					"attributes":{
						"POSITION":0,
						"NORMAL":1,
						"TEXCOORD_0":2,
						"TEXCOORD_1":3,
						"TEXCOORD_2":4,
						"TEXCOORD_3":5,
						"TEXCOORD_4":6
					},
					"indices":7,
					"material":0
				}
			]
		}
	],
	"accessors":[
		{
			"bufferView":0,
			"componentType":5126,
			"count":16634,
			"max":[
				0.6458311676979065,
				0.9506183862686157,
				0.7602576017379761
			],
			"min":[
				-0.6477190256118774,
				-0.9542433023452759,
				-0.7614412307739258
			],
			"type":"VEC3"
		},
		{
			"bufferView":1,
			"componentType":5126,
			"count":16634,
			"type":"VEC3"
		},
		{
			"bufferView":2,
			"componentType":5126,
			"count":16634,
			"type":"VEC2"
		},
		{
			"bufferView":3,
			"componentType":5126,
			"count":16634,
			"type":"VEC2"
		},
		{
			"bufferView":4,
			"componentType":5126,
			"count":16634,
			"type":"VEC2"
		},
		{
			"bufferView":5,
			"componentType":5126,
			"count":16634,
			"type":"VEC2"
		},
		{
			"bufferView":6,
			"componentType":5126,
			"count":16634,
			"type":"VEC2"
		},
		{
			"bufferView":7,
			"componentType":5123,
			"count":35892,
			"type":"SCALAR"
		}
	],
	"bufferViews":[
		{
			"buffer":0,
			"byteLength":199608,
			"byteOffset":0,
			"target":34962
		},
		{
			"buffer":0,
			"byteLength":199608,
			"byteOffset":199608,
			"target":34962
		},
		{
			"buffer":0,
			"byteLength":133072,
			"byteOffset":399216,
			"target":34962
		},
		{
			"buffer":0,
			"byteLength":133072,
			"byteOffset":532288,
			"target":34962
		},
		{
			"buffer":0,
			"byteLength":133072,
			"byteOffset":665360,
			"target":34962
		},
		{
			"buffer":0,
			"byteLength":133072,
			"byteOffset":798432,
			"target":34962
		},
		{
			"buffer":0,
			"byteLength":133072,
			"byteOffset":931504,
			"target":34962
		},
		{
			"buffer":0,
			"byteLength":71784,
			"byteOffset":1064576,
			"target":34963
		}
	],
	"buffers":[
		{
			"byteLength":1136360,
			"uri":"scene.bin"
		}
	]
}
