{
	"asset":{
		"generator":"Khronos glTF Blender I/O v5.1.20",
		"version":"2.0"
	},
	"scene":0,
	"scenes":[
		{
			"name":"Scene",
			"nodes":[
				0
			]
		}
	],
	"nodes":[
		{
			"mesh":0,
			"name":"cbp5",
			"rotation":[
				0.70710688829422,
				0,
				0,
				0.7071066498756409
			],
			"translation":[
				2.003347873687744,
				0.18012237548828125,
				0.24674105644226074
			]
		}
	],
	"materials":[
		{
			"doubleSided":true,
			"name":"TeamPrimary",
			"pbrMetallicRoughness":{
				"baseColorFactor":[
					0.23100000619888306,
					0.4309999942779541,
					0.9139999747276306,
					1
				],
				"metallicFactor":0.05999999865889549,
				"roughnessFactor":0.8199999928474426
			}
		}
	],
	"meshes":[
		{
			"name":"cbp5.001",
			"primitives":[
				{
					"attributes":{
						"POSITION":0,
						"NORMAL":1
					},
					"indices":2,
					"material":0
				}
			]
		}
	],
	"accessors":[
		{
			"bufferView":0,
			"componentType":5126,
			"count":5313,
			"max":[
				0.4128250479698181,
				0.24252143502235413,
				0.00015052343951538205
			],
			"min":[
				-0.4141691327095032,
				-0.23597916960716248,
				-0.8734152317047119
			],
			"type":"VEC3"
		},
		{
			"bufferView":1,
			"componentType":5126,
			"count":5313,
			"type":"VEC3"
		},
		{
			"bufferView":2,
			"componentType":5123,
			"count":9882,
			"type":"SCALAR"
		}
	],
	"bufferViews":[
		{
			"buffer":0,
			"byteLength":63756,
			"byteOffset":0,
			"target":34962
		},
		{
			"buffer":0,
			"byteLength":63756,
			"byteOffset":63756,
			"target":34962
		},
		{
			"buffer":0,
			"byteLength":19764,
			"byteOffset":127512,
			"target":34963
		}
	],
	"buffers":[
		{
			"byteLength":147276,
			"uri":"scene.bin"
		}
	]
}
