{
	"asset":{
		"generator":"Khronos glTF Blender I/O v5.1.20",
		"version":"2.0"
	},
	"scene":0,
	"scenes":[
		{
			"name":"Scene",
			"nodes":[
				0,
				1,
				2,
				3,
				4,
				5,
				6,
				7,
				8,
				9,
				10,
				11
			]
		}
	],
	"nodes":[
		{
			"mesh":0,
			"name":"light_mech_armorbody_low_armorbody.001_0",
			"rotation":[
				-0.70710688829422,
				0,
				0,
				0.7071066498756409
			]
		},
		{
			"mesh":1,
			"name":"light_mech_armorleg_low_armorleg.001_0",
			"rotation":[
				-0.70710688829422,
				0,
				0,
				0.7071066498756409
			]
		},
		{
			"mesh":2,
			"name":"light_mech_body_low_body.001_0",
			"rotation":[
				-0.70710688829422,
				0,
				0,
				0.7071066498756409
			]
		},
		{
			"mesh":3,
			"name":"light_mech_foot_low_foot.001_0",
			"rotation":[
				-0.70710688829422,
				0,
				0,
				0.7071066498756409
			]
		},
		{
			"mesh":4,
			"name":"light_mech_footdetail_low_foot.001_0",
			"rotation":[
				-0.70710688829422,
				0,
				0,
				0.7071066498756409
			]
		},
		{
			"mesh":5,
			"name":"light_mech_leg_low_leg.001_0",
			"rotation":[
				-0.70710688829422,
				0,
				0,
				0.7071066498756409
			]
		},
		{
			"mesh":6,
			"name":"light_mech_legdetail_low_leg.001_0",
			"rotation":[
				-0.70710688829422,
				0,
				0,
				0.7071066498756409
			]
		},
		{
			"mesh":7,
			"name":"light_mech_spine_low_spine.001_0",
			"rotation":[
				-0.70710688829422,
				0,
				0,
				0.7071066498756409
			]
		},
		{
			"mesh":8,
			"name":"light_mech_spinedetail_low_spine.001_0",
			"rotation":[
				-0.70710688829422,
				0,
				0,
				0.7071066498756409
			]
		},
		{
			"mesh":9,
			"name":"light_mech_weapon_low_weapon.001_0",
			"rotation":[
				-0.70710688829422,
				0,
				0,
				0.7071066498756409
			],
			"translation":[
				-1.7864981889724731,
				5.147984027862549,
				-0.28846412897109985
			]
		},
		{
			"mesh":10,
			"name":"light_mech_weapondetail_low_weapon.001_0",
			"rotation":[
				-0.70710688829422,
				0,
				0,
				0.7071066498756409
			]
		},
		{
			"mesh":11,
			"name":"light_mech_wires_low_wires.001_0",
			"rotation":[
				-0.70710688829422,
				0,
				0,
				0.7071066498756409
			]
		}
	],
	"materials":[
		{
			"doubleSided":true,
			"name":"TeamRed",
			"pbrMetallicRoughness":{
				"baseColorFactor":[
					0.800000011920929,
					0.27000001072883606,
					0.25999999046325684,
					1
				],
				"metallicFactor":0.07999999821186066,
				"roughnessFactor":0.8600000143051147
			}
		}
	],
	"meshes":[
		{
			"name":"armorbody_low_armorbody.001_0",
			"primitives":[
				{
					"attributes":{
						"POSITION":0,
						"NORMAL":1,
						"TEXCOORD_0":2
					},
					"indices":3,
					"material":0
				}
			]
		},
		{
			"name":"armorleg_low_armorleg.001_0",
			"primitives":[
				{
					"attributes":{
						"POSITION":4,
						"NORMAL":5,
						"TEXCOORD_0":6
					},
					"indices":7,
					"material":0
				}
			]
		},
		{
			"name":"body_low_body.001_0",
			"primitives":[
				{
					"attributes":{
						"POSITION":8,
						"NORMAL":9,
						"TEXCOORD_0":10
					},
					"indices":11,
					"material":0
				}
			]
		},
		{
			"name":"foot_low_foot.001_0",
			"primitives":[
				{
					"attributes":{
						"POSITION":12,
						"NORMAL":13,
						"TEXCOORD_0":14
					},
					"indices":15,
					"material":0
				}
			]
		},
		{
			"name":"footdetail_low_foot.001_0",
			"primitives":[
				{
					"attributes":{
						"POSITION":16,
						"NORMAL":17,
						"TEXCOORD_0":18
					},
					"indices":19,
					"material":0
				}
			]
		},
		{
			"name":"leg_low_leg.001_0",
			"primitives":[
				{
					"attributes":{
						"POSITION":20,
						"NORMAL":21,
						"TEXCOORD_0":22
					},
					"indices":23,
					"material":0
				}
			]
		},
		{
			"name":"legdetail_low_leg.001_0",
			"primitives":[
				{
					"attributes":{
						"POSITION":24,
						"NORMAL":25,
						"TEXCOORD_0":26
					},
					"indices":27,
					"material":0
				}
			]
		},
		{
			"name":"spine_low_spine.001_0",
			"primitives":[
				{
					"attributes":{
						"POSITION":28,
						"NORMAL":29,
						"TEXCOORD_0":30
					},
					"indices":31,
					"material":0
				}
			]
		},
		{
			"name":"spinedetail_low_spine.001_0",
			"primitives":[
				{
					"attributes":{
						"POSITION":32,
						"NORMAL":33,
						"TEXCOORD_0":34
					},
					"indices":35,
					"material":0
				}
			]
		},
		{
			"name":"weapon_low_weapon.001_0",
			"primitives":[
				{
					"attributes":{
						"POSITION":36,
						"NORMAL":37,
						"TEXCOORD_0":38
					},
					"indices":39,
					"material":0
				}
			]
		},
		{
			"name":"weapondetail_low_weapon.001_0",
			"primitives":[
				{
					"attributes":{
						"POSITION":40,
						"NORMAL":41,
						"TEXCOORD_0":42
					},
					"indices":43,
					"material":0
				}
			]
		},
		{
			"name":"wires_low_wires.001_0",
			"primitives":[
				{
					"attributes":{
						"POSITION":44,
						"NORMAL":45,
						"TEXCOORD_0":46
					},
					"indices":47,
					"material":0
				}
			]
		}
	],
	"accessors":[
		{
			"bufferView":0,
			"componentType":5126,
			"count":1312,
			"max":[
				0.9915395975112915,
				1.7830790281295776,
				5.145854949951172
			],
			"min":[
				-0.9915398359298706,
				0.328715443611145,
				3.8056912422180176
			],
			"type":"VEC3"
		},
		{
			"bufferView":1,
			"componentType":5126,
			"count":1312,
			"type":"VEC3"
		},
		{
			"bufferView":2,
			"componentType":5126,
			"count":1312,
			"type":"VEC2"
		},
		{
			"bufferView":3,
			"componentType":5123,
			"count":2802,
			"type":"SCALAR"
		},
		{
			"bufferView":4,
			"componentType":5126,
			"count":10254,
			"max":[
				1.3412598371505737,
				1.566798210144043,
				3.173265218734741
			],
			"min":[
				-1.3412598371505737,
				-0.3289746344089508,
				1.3015685081481934
			],
			"type":"VEC3"
		},
		{
			"bufferView":5,
			"componentType":5126,
			"count":10254,
			"type":"VEC3"
		},
		{
			"bufferView":6,
			"componentType":5126,
			"count":10254,
			"type":"VEC2"
		},
		{
			"bufferView":7,
			"componentType":5123,
			"count":31788,
			"type":"SCALAR"
		},
		{
			"bufferView":8,
			"componentType":5126,
			"count":1182,
			"max":[
				0.9663318395614624,
				1.5435421466827393,
				4.841005802154541
			],
			"min":[
				-0.9663318395614624,
				-1.5261905193328857,
				2.624478578567505
			],
			"type":"VEC3"
		},
		{
			"bufferView":9,
			"componentType":5126,
			"count":1182,
			"type":"VEC3"
		},
		{
			"bufferView":10,
			"componentType":5126,
			"count":1182,
			"type":"VEC2"
		},
		{
			"bufferView":11,
			"componentType":5123,
			"count":2676,
			"type":"SCALAR"
		},
		{
			"bufferView":12,
			"componentType":5126,
			"count":18937,
			"max":[
				1.443243145942688,
				1.252920389175415,
				0.5732624530792236
			],
			"min":[
				-1.443243145942688,
				-0.7494039535522461,
				-0.08152170479297638
			],
			"type":"VEC3"
		},
		{
			"bufferView":13,
			"componentType":5126,
			"count":18937,
			"type":"VEC3"
		},
		{
			"bufferView":14,
			"componentType":5126,
			"count":18937,
			"type":"VEC2"
		},
		{
			"bufferView":15,
			"componentType":5123,
			"count":51906,
			"type":"SCALAR"
		},
		{
			"bufferView":16,
			"componentType":5126,
			"count":8007,
			"max":[
				1.3772996664047241,
				0.9444417357444763,
				0.5848705768585205
			],
			"min":[
				-1.3772996664047241,
				-0.7325800657272339,
				-0.05051320046186447
			],
			"type":"VEC3"
		},
		{
			"bufferView":17,
			"componentType":5126,
			"count":8007,
			"type":"VEC3"
		},
		{
			"bufferView":18,
			"componentType":5126,
			"count":8007,
			"type":"VEC2"
		},
		{
			"bufferView":19,
			"componentType":5123,
			"count":23004,
			"type":"SCALAR"
		},
		{
			"bufferView":20,
			"componentType":5126,
			"count":6031,
			"max":[
				1.179401159286499,
				1.7641688585281372,
				3.028324842453003
			],
			"min":[
				-1.179401159286499,
				-0.01613451912999153,
				0.3210441470146179
			],
			"type":"VEC3"
		},
		{
			"bufferView":21,
			"componentType":5126,
			"count":6031,
			"type":"VEC3"
		},
		{
			"bufferView":22,
			"componentType":5126,
			"count":6031,
			"type":"VEC2"
		},
		{
			"bufferView":23,
			"componentType":5123,
			"count":17484,
			"type":"SCALAR"
		},
		{
			"bufferView":24,
			"componentType":5126,
			"count":3708,
			"max":[
				1.2386291027069092,
				1.6260173320770264,
				2.082496166229248
			],
			"min":[
				-1.2386291027069092,
				0.3181705176830292,
				0.7181069254875183
			],
			"type":"VEC3"
		},
		{
			"bufferView":25,
			"componentType":5126,
			"count":3708,
			"type":"VEC3"
		},
		{
			"bufferView":26,
			"componentType":5126,
			"count":3708,
			"type":"VEC2"
		},
		{
			"bufferView":27,
			"componentType":5123,
			"count":8436,
			"type":"SCALAR"
		},
		{
			"bufferView":28,
			"componentType":5126,
			"count":3410,
			"max":[
				0.9045568108558655,
				1.6532829999923706,
				3.953838586807251
			],
			"min":[
				-0.9045568108558655,
				-0.16902340948581696,
				2.20584774017334
			],
			"type":"VEC3"
		},
		{
			"bufferView":29,
			"componentType":5126,
			"count":3410,
			"type":"VEC3"
		},
		{
			"bufferView":30,
			"componentType":5126,
			"count":3410,
			"type":"VEC2"
		},
		{
			"bufferView":31,
			"componentType":5123,
			"count":6504,
			"type":"SCALAR"
		},
		{
			"bufferView":32,
			"componentType":5126,
			"count":1916,
			"max":[
				0.704232931137085,
				1.5521615743637085,
				3.8278422355651855
			],
			"min":[
				-0.704232931137085,
				1.0397785902023315,
				2.9603464603424072
			],
			"type":"VEC3"
		},
		{
			"bufferView":33,
			"componentType":5126,
			"count":1916,
			"type":"VEC3"
		},
		{
			"bufferView":34,
			"componentType":5126,
			"count":1916,
			"type":"VEC2"
		},
		{
			"bufferView":35,
			"componentType":5123,
			"count":5604,
			"type":"SCALAR"
		},
		{
			"bufferView":36,
			"componentType":5126,
			"count":7808,
			"max":[
				3.8739004135131836,
				1.6506365537643433,
				0.11566400527954102
			],
			"min":[
				-0.6844034194946289,
				-0.4579605460166931,
				-1.5689115524291992
			],
			"type":"VEC3"
		},
		{
			"bufferView":37,
			"componentType":5126,
			"count":7808,
			"type":"VEC3"
		},
		{
			"bufferView":38,
			"componentType":5126,
			"count":7808,
			"type":"VEC2"
		},
		{
			"bufferView":39,
			"componentType":5123,
			"count":20070,
			"type":"SCALAR"
		},
		{
			"bufferView":40,
			"componentType":5126,
			"count":1593,
			"max":[
				1.5291869640350342,
				1.7475892305374146,
				4.795404434204102
			],
			"min":[
				-2.2383816242218018,
				0.2710186541080475,
				4.1849822998046875
			],
			"type":"VEC3"
		},
		{
			"bufferView":41,
			"componentType":5126,
			"count":1593,
			"type":"VEC3"
		},
		{
			"bufferView":42,
			"componentType":5126,
			"count":1593,
			"type":"VEC2"
		},
		{
			"bufferView":43,
			"componentType":5123,
			"count":4440,
			"type":"SCALAR"
		},
		{
			"bufferView":44,
			"componentType":5126,
			"count":22259,
			"max":[
				1.9436086416244507,
				2.022956132888794,
				5.442169189453125
			],
			"min":[
				-1.8542602062225342,
				-1.0367188453674316,
				0.29981735348701477
			],
			"type":"VEC3"
		},
		{
			"bufferView":45,
			"componentType":5126,
			"count":22259,
			"type":"VEC3"
		},
		{
			"bufferView":46,
			"componentType":5126,
			"count":22259,
			"type":"VEC2"
		},
		{
			"bufferView":47,
			"componentType":5123,
			"count":119856,
			"type":"SCALAR"
		}
	],
	"bufferViews":[
		{
			"buffer":0,
			"byteLength":15744,
			"byteOffset":0,
			"target":34962
		},
		{
			"buffer":0,
			"byteLength":15744,
			"byteOffset":15744,
			"target":34962
		},
		{
			"buffer":0,
			"byteLength":10496,
			"byteOffset":31488,
			"target":34962
		},
		{
			"buffer":0,
			"byteLength":5604,
			"byteOffset":41984,
			"target":34963
		},
		{
			"buffer":0,
			"byteLength":123048,
			"byteOffset":47588,
			"target":34962
		},
		{
			"buffer":0,
			"byteLength":123048,
			"byteOffset":170636,
			"target":34962
		},
		{
			"buffer":0,
			"byteLength":82032,
			"byteOffset":293684,
			"target":34962
		},
		{
			"buffer":0,
			"byteLength":63576,
			"byteOffset":375716,
			"target":34963
		},
		{
			"buffer":0,
			"byteLength":14184,
			"byteOffset":439292,
			"target":34962
		},
		{
			"buffer":0,
			"byteLength":14184,
			"byteOffset":453476,
			"target":34962
		},
		{
			"buffer":0,
			"byteLength":9456,
			"byteOffset":467660,
			"target":34962
		},
		{
			"buffer":0,
			"byteLength":5352,
			"byteOffset":477116,
			"target":34963
		},
		{
			"buffer":0,
			"byteLength":227244,
			"byteOffset":482468,
			"target":34962
		},
		{
			"buffer":0,
			"byteLength":227244,
			"byteOffset":709712,
			"target":34962
		},
		{
			"buffer":0,
			"byteLength":151496,
			"byteOffset":936956,
			"target":34962
		},
		{
			"buffer":0,
			"byteLength":103812,
			"byteOffset":1088452,
			"target":34963
		},
		{
			"buffer":0,
			"byteLength":96084,
			"byteOffset":1192264,
			"target":34962
		},
		{
			"buffer":0,
			"byteLength":96084,
			"byteOffset":1288348,
			"target":34962
		},
		{
			"buffer":0,
			"byteLength":64056,
			"byteOffset":1384432,
			"target":34962
		},
		{
			"buffer":0,
			"byteLength":46008,
			"byteOffset":1448488,
			"target":34963
		},
		{
			"buffer":0,
			"byteLength":72372,
			"byteOffset":1494496,
			"target":34962
		},
		{
			"buffer":0,
			"byteLength":72372,
			"byteOffset":1566868,
			"target":34962
		},
		{
			"buffer":0,
			"byteLength":48248,
			"byteOffset":1639240,
			"target":34962
		},
		{
			"buffer":0,
			"byteLength":34968,
			"byteOffset":1687488,
			"target":34963
		},
		{
			"buffer":0,
			"byteLength":44496,
			"byteOffset":1722456,
			"target":34962
		},
		{
			"buffer":0,
			"byteLength":44496,
			"byteOffset":1766952,
			"target":34962
		},
		{
			"buffer":0,
			"byteLength":29664,
			"byteOffset":1811448,
			"target":34962
		},
		{
			"buffer":0,
			"byteLength":16872,
			"byteOffset":1841112,
			"target":34963
		},
		{
			"buffer":0,
			"byteLength":40920,
			"byteOffset":1857984,
			"target":34962
		},
		{
			"buffer":0,
			"byteLength":40920,
			"byteOffset":1898904,
			"target":34962
		},
		{
			"buffer":0,
			"byteLength":27280,
			"byteOffset":1939824,
			"target":34962
		},
		{
			"buffer":0,
			"byteLength":13008,
			"byteOffset":1967104,
			"target":34963
		},
		{
			"buffer":0,
			"byteLength":22992,
			"byteOffset":1980112,
			"target":34962
		},
		{
			"buffer":0,
			"byteLength":22992,
			"byteOffset":2003104,
			"target":34962
		},
		{
			"buffer":0,
			"byteLength":15328,
			"byteOffset":2026096,
			"target":34962
		},
		{
			"buffer":0,
			"byteLength":11208,
			"byteOffset":2041424,
			"target":34963
		},
		{
			"buffer":0,
			"byteLength":93696,
			"byteOffset":2052632,
			"target":34962
		},
		{
			"buffer":0,
			"byteLength":93696,
			"byteOffset":2146328,
			"target":34962
		},
		{
			"buffer":0,
			"byteLength":62464,
			"byteOffset":2240024,
			"target":34962
		},
		{
			"buffer":0,
			"byteLength":40140,
			"byteOffset":2302488,
			"target":34963
		},
		{
			"buffer":0,
			"byteLength":19116,
			"byteOffset":2342628,
			"target":34962
		},
		{
			"buffer":0,
			"byteLength":19116,
			"byteOffset":2361744,
			"target":34962
		},
		{
			"buffer":0,
			"byteLength":12744,
			"byteOffset":2380860,
			"target":34962
		},
		{
			"buffer":0,
			"byteLength":8880,
			"byteOffset":2393604,
			"target":34963
		},
		{
			"buffer":0,
			"byteLength":267108,
			"byteOffset":2402484,
			"target":34962
		},
		{
			"buffer":0,
			"byteLength":267108,
			"byteOffset":2669592,
			"target":34962
		},
		{
			"buffer":0,
			"byteLength":178072,
			"byteOffset":2936700,
			"target":34962
		},
		{
			"buffer":0,
			"byteLength":239712,
			"byteOffset":3114772,
			"target":34963
		}
	],
	"buffers":[
		{
			"byteLength":3354484,
			"uri":"scene.bin"
		}
	]
}
