{
	"asset":{
		"generator":"Khronos glTF Blender I/O v5.1.20",
		"version":"2.0"
	},
	"scene":0,
	"scenes":[
		{
			"name":"Scene",
			"nodes":[
				0
			]
		}
	],
	"nodes":[
		{
			"mesh":0,
			"name":"battle_scout_lowpoly"
		}
	],
	"materials":[
		{
			"doubleSided":true,
			"name":"TeamBlue",
			"pbrMetallicRoughness":{
				"baseColorFactor":[
					0.23100000619888306,
					0.4309999942779541,
					0.9139999747276306,
					1
				],
				"metallicFactor":0.07999999821186066,
				"roughnessFactor":0.8600000143051147
			}
		}
	],
	"meshes":[
		{
			"name":"Object_0",
			"primitives":[
				{
					"attributes":{
						"POSITION":0,
						"NORMAL":1,
						"TEXCOORD_0":2,
						"TEXCOORD_1":3,
						"TEXCOORD_2":4,
						"TEXCOORD_3":5
					},
					"indices":6,
					"material":0
				}
			]
		}
	],
	"accessors":[
		{
			"bufferView":0,
			"componentType":5126,
			"count":20540,
			"max":[
				0.6083450317382812,
				0.9235871434211731,
				0.6246206164360046
			],
			"min":[
				-0.6049461960792542,
				-0.9499836564064026,
				-0.6315149068832397
			],
			"type":"VEC3"
		},
		{
			"bufferView":1,
			"componentType":5126,
			"count":20540,
			"type":"VEC3"
		},
		{
			"bufferView":2,
			"componentType":5126,
			"count":20540,
			"type":"VEC2"
		},
		{
			"bufferView":3,
			"componentType":5126,
			"count":20540,
			"type":"VEC2"
		},
		{
			"bufferView":4,
			"componentType":5126,
			"count":20540,
			"type":"VEC2"
		},
		{
			"bufferView":5,
			"componentType":5126,
			"count":20540,
			"type":"VEC2"
		},
		{
			"bufferView":6,
			"componentType":5123,
			"count":35898,
			"type":"SCALAR"
		}
	],
	"bufferViews":[
		{
			"buffer":0,
			"byteLength":246480,
			"byteOffset":0,
			"target":34962
		},
		{
			"buffer":0,
			"byteLength":246480,
			"byteOffset":246480,
			"target":34962
		},
		{
			"buffer":0,
			"byteLength":164320,
			"byteOffset":492960,
			"target":34962
		},
		{
			"buffer":0,
			"byteLength":164320,
			"byteOffset":657280,
			"target":34962
		},
		{
			"buffer":0,
			"byteLength":164320,
			"byteOffset":821600,
			"target":34962
		},
		{
			"buffer":0,
			"byteLength":164320,
			"byteOffset":985920,
			"target":34962
		},
		{
			"buffer":0,
			"byteLength":71796,
			"byteOffset":1150240,
			"target":34963
		}
	],
	"buffers":[
		{
			"byteLength":1222036,
			"uri":"scene.bin"
		}
	]
}
