{
	"asset":{
		"generator":"Khronos glTF Blender I/O v5.1.20",
		"version":"2.0"
	},
	"scene":0,
	"scenes":[
		{
			"name":"Scene",
			"nodes":[
				0
			]
		}
	],
	"nodes":[
		{
			"mesh":0,
			"name":"cbp3",
			"rotation":[
				0.70710688829422,
				0,
				0,
				0.7071066498756409
			],
			"translation":[
				0.0033478736877441406,
				0.18012237548828125,
				0.24674105644226074
			]
		}
	],
	"materials":[
		{
			"doubleSided":true,
			"name":"TeamPrimary",
			"pbrMetallicRoughness":{
				"baseColorFactor":[
					0.23100000619888306,
					0.4309999942779541,
					0.9139999747276306,
					1
				],
				"metallicFactor":0.05999999865889549,
				"roughnessFactor":0.8199999928474426
			}
		}
	],
	"meshes":[
		{
			"name":"cbp3.001",
			"primitives":[
				{
					"attributes":{
						"POSITION":0,
						"NORMAL":1
					},
					"indices":2,
					"material":0
				}
			]
		}
	],
	"accessors":[
		{
			"bufferView":0,
			"componentType":5126,
			"count":3549,
			"max":[
				0.40400394797325134,
				0.2902451753616333,
				-0.0028218438383191824
			],
			"min":[
				-0.4050387740135193,
				-0.24826191365718842,
				-0.909185528755188
			],
			"type":"VEC3"
		},
		{
			"bufferView":1,
			"componentType":5126,
			"count":3549,
			"type":"VEC3"
		},
		{
			"bufferView":2,
			"componentType":5123,
			"count":7194,
			"type":"SCALAR"
		}
	],
	"bufferViews":[
		{
			"buffer":0,
			"byteLength":42588,
			"byteOffset":0,
			"target":34962
		},
		{
			"buffer":0,
			"byteLength":42588,
			"byteOffset":42588,
			"target":34962
		},
		{
			"buffer":0,
			"byteLength":14388,
			"byteOffset":85176,
			"target":34963
		}
	],
	"buffers":[
		{
			"byteLength":99564,
			"uri":"scene.bin"
		}
	]
}
