{
	"asset":{
		"generator":"Khronos glTF Blender I/O v5.1.20",
		"version":"2.0"
	},
	"scene":0,
	"scenes":[
		{
			"name":"Scene",
			"nodes":[
				0
			]
		}
	],
	"nodes":[
		{
			"mesh":0,
			"name":"needleer_lowpoly"
		}
	],
	"materials":[
		{
			"doubleSided":true,
			"name":"TeamBlue",
			"pbrMetallicRoughness":{
				"baseColorFactor":[
					0.23100000619888306,
					0.4309999942779541,
					0.9139999747276306,
					1
				],
				"metallicFactor":0.07999999821186066,
				"roughnessFactor":0.8600000143051147
			}
		}
	],
	"meshes":[
		{
			"name":"Object_0",
			"primitives":[
				{
					"attributes":{
						"POSITION":0,
						"NORMAL":1
					},
					"indices":2,
					"material":0
				}
			]
		}
	],
	"accessors":[
		{
			"bufferView":0,
			"componentType":5126,
			"count":6634,
			"max":[
				0.566095769405365,
				0.8451444506645203,
				0.5770025253295898
			],
			"min":[
				-0.5674876570701599,
				-0.9502630829811096,
				-0.5798777937889099
			],
			"type":"VEC3"
		},
		{
			"bufferView":1,
			"componentType":5126,
			"count":6634,
			"type":"VEC3"
		},
		{
			"bufferView":2,
			"componentType":5123,
			"count":39804,
			"type":"SCALAR"
		}
	],
	"bufferViews":[
		{
			"buffer":0,
			"byteLength":79608,
			"byteOffset":0,
			"target":34962
		},
		{
			"buffer":0,
			"byteLength":79608,
			"byteOffset":79608,
			"target":34962
		},
		{
			"buffer":0,
			"byteLength":79608,
			"byteOffset":159216,
			"target":34963
		}
	],
	"buffers":[
		{
			"byteLength":238824,
			"uri":"scene.bin"
		}
	]
}
