{
	"asset":{
		"generator":"Khronos glTF Blender I/O v5.1.20",
		"version":"2.0"
	},
	"scene":0,
	"scenes":[
		{
			"name":"Scene",
			"nodes":[
				0
			]
		}
	],
	"nodes":[
		{
			"mesh":0,
			"name":"cbp0",
			"rotation":[
				0.70710688829422,
				0,
				0,
				0.7071066498756409
			],
			"translation":[
				-0.011847317218780518,
				0.3764500319957733,
				-0.001479506492614746
			]
		}
	],
	"materials":[
		{
			"doubleSided":true,
			"name":"TeamPrimary",
			"pbrMetallicRoughness":{
				"baseColorFactor":[
					0.23100000619888306,
					0.4309999942779541,
					0.9139999747276306,
					1
				],
				"metallicFactor":0.05999999865889549,
				"roughnessFactor":0.8199999928474426
			}
		}
	],
	"meshes":[
		{
			"name":"cbp0.001",
			"primitives":[
				{
					"attributes":{
						"POSITION":0,
						"NORMAL":1
					},
					"indices":2,
					"material":0
				}
			]
		}
	],
	"accessors":[
		{
			"bufferView":0,
			"componentType":5126,
			"count":1813,
			"max":[
				0.43043163418769836,
				0.2539401352405548,
				0.331216037273407
			],
			"min":[
				-0.41435858607292175,
				-0.2680000066757202,
				-0.6468275189399719
			],
			"type":"VEC3"
		},
		{
			"bufferView":1,
			"componentType":5126,
			"count":1813,
			"type":"VEC3"
		},
		{
			"bufferView":2,
			"componentType":5123,
			"count":3594,
			"type":"SCALAR"
		}
	],
	"bufferViews":[
		{
			"buffer":0,
			"byteLength":21756,
			"byteOffset":0,
			"target":34962
		},
		{
			"buffer":0,
			"byteLength":21756,
			"byteOffset":21756,
			"target":34962
		},
		{
			"buffer":0,
			"byteLength":7188,
			"byteOffset":43512,
			"target":34963
		}
	],
	"buffers":[
		{
			"byteLength":50700,
			"uri":"scene.bin"
		}
	]
}
