{
	"asset":{
		"generator":"Khronos glTF Blender I/O v5.1.20",
		"version":"2.0"
	},
	"scene":0,
	"scenes":[
		{
			"name":"Scene",
			"nodes":[
				0
			]
		}
	],
	"nodes":[
		{
			"mesh":0,
			"name":"armor_stopper_lowpoly"
		}
	],
	"materials":[
		{
			"doubleSided":true,
			"name":"TeamBlue",
			"pbrMetallicRoughness":{
				"baseColorFactor":[
					0.23100000619888306,
					0.4309999942779541,
					0.9139999747276306,
					1
				],
				"metallicFactor":0.07999999821186066,
				"roughnessFactor":0.8600000143051147
			}
		}
	],
	"meshes":[
		{
			"name":"Object_0",
			"primitives":[
				{
					"attributes":{
						"POSITION":0,
						"NORMAL":1,
						"TEXCOORD_0":2,
						"TEXCOORD_1":3,
						"TEXCOORD_2":4,
						"TEXCOORD_3":5
					},
					"indices":6,
					"material":0
				}
			]
		}
	],
	"accessors":[
		{
			"bufferView":0,
			"componentType":5126,
			"count":15013,
			"max":[
				0.6802917122840881,
				0.9484036564826965,
				0.7784241437911987
			],
			"min":[
				-0.6820860505104065,
				-0.9499655365943909,
				-0.7835369110107422
			],
			"type":"VEC3"
		},
		{
			"bufferView":1,
			"componentType":5126,
			"count":15013,
			"type":"VEC3"
		},
		{
			"bufferView":2,
			"componentType":5126,
			"count":15013,
			"type":"VEC2"
		},
		{
			"bufferView":3,
			"componentType":5126,
			"count":15013,
			"type":"VEC2"
		},
		{
			"bufferView":4,
			"componentType":5126,
			"count":15013,
			"type":"VEC2"
		},
		{
			"bufferView":5,
			"componentType":5126,
			"count":15013,
			"type":"VEC2"
		},
		{
			"bufferView":6,
			"componentType":5123,
			"count":35922,
			"type":"SCALAR"
		}
	],
	"bufferViews":[
		{
			"buffer":0,
			"byteLength":180156,
			"byteOffset":0,
			"target":34962
		},
		{
			"buffer":0,
			"byteLength":180156,
			"byteOffset":180156,
			"target":34962
		},
		{
			"buffer":0,
			"byteLength":120104,
			"byteOffset":360312,
			"target":34962
		},
		{
			"buffer":0,
			"byteLength":120104,
			"byteOffset":480416,
			"target":34962
		},
		{
			"buffer":0,
			"byteLength":120104,
			"byteOffset":600520,
			"target":34962
		},
		{
			"buffer":0,
			"byteLength":120104,
			"byteOffset":720624,
			"target":34962
		},
		{
			"buffer":0,
			"byteLength":71844,
			"byteOffset":840728,
			"target":34963
		}
	],
	"buffers":[
		{
			"byteLength":912572,
			"uri":"scene.bin"
		}
	]
}
