{
	"asset":{
		"generator":"Khronos glTF Blender I/O v5.1.20",
		"version":"2.0"
	},
	"scene":0,
	"scenes":[
		{
			"name":"Scene",
			"nodes":[
				0
			]
		}
	],
	"nodes":[
		{
			"mesh":0,
			"name":"cbp1",
			"rotation":[
				0.70710688829422,
				0,
				0,
				0.7071066498756409
			],
			"translation":[
				-1.9966521263122559,
				0.18012237548828125,
				0.24674105644226074
			]
		}
	],
	"materials":[
		{
			"doubleSided":true,
			"name":"TeamPrimary",
			"pbrMetallicRoughness":{
				"baseColorFactor":[
					0.23100000619888306,
					0.4309999942779541,
					0.9139999747276306,
					1
				],
				"metallicFactor":0.05999999865889549,
				"roughnessFactor":0.8199999928474426
			}
		}
	],
	"meshes":[
		{
			"name":"cbp1.001",
			"primitives":[
				{
					"attributes":{
						"POSITION":0,
						"NORMAL":1
					},
					"indices":2,
					"material":0
				}
			]
		}
	],
	"accessors":[
		{
			"bufferView":0,
			"componentType":5126,
			"count":2501,
			"max":[
				0.4343913793563843,
				0.25654879212379456,
				-0.00022306038590613753
			],
			"min":[
				-0.40646791458129883,
				-0.2812332510948181,
				-0.9584887027740479
			],
			"type":"VEC3"
		},
		{
			"bufferView":1,
			"componentType":5126,
			"count":2501,
			"type":"VEC3"
		},
		{
			"bufferView":2,
			"componentType":5123,
			"count":4968,
			"type":"SCALAR"
		}
	],
	"bufferViews":[
		{
			"buffer":0,
			"byteLength":30012,
			"byteOffset":0,
			"target":34962
		},
		{
			"buffer":0,
			"byteLength":30012,
			"byteOffset":30012,
			"target":34962
		},
		{
			"buffer":0,
			"byteLength":9936,
			"byteOffset":60024,
			"target":34963
		}
	],
	"buffers":[
		{
			"byteLength":69960,
			"uri":"scene.bin"
		}
	]
}
