{
	"asset":{
		"generator":"Khronos glTF Blender I/O v5.1.20",
		"version":"2.0"
	},
	"extensionsUsed":[
		"KHR_materials_specular"
	],
	"scene":0,
	"scenes":[
		{
			"name":"Scene",
			"nodes":[
				40
			]
		}
	],
	"nodes":[
		{
			"name":"Minigun_L_03",
			"rotation":[
				-0.0025047599337995052,
				0.707102358341217,
				0.707102358341217,
				0.0025048349052667618
			],
			"scale":[
				1,
				0.9999997615814209,
				1
			],
			"translation":[
				0.48651123046875,
				-0.3904523253440857,
				0.7700480222702026
			]
		},
		{
			"name":"Gun_L_04",
			"rotation":[
				-0.00250476086512208,
				0.7071022987365723,
				0.7071024179458618,
				0.0025048349052667618
			],
			"scale":[
				1,
				0.9999997615814209,
				1
			],
			"translation":[
				0.15728759765625,
				-0.3377179801464081,
				1.3550089597702026
			]
		},
		{
			"children":[
				0,
				1
			],
			"name":"Arm_L_02",
			"rotation":[
				1.6552925785617845e-07,
				0,
				0,
				1
			],
			"scale":[
				1,
				0.9999998807907104,
				1
			],
			"translation":[
				1.01507568359375,
				0.9300587773323059,
				0.11780336499214172
			]
		},
		{
			"name":"Minigun_R_06",
			"rotation":[
				-0.0025047140661627054,
				-0.707102358341217,
				-0.707102358341217,
				0.0025046668015420437
			],
			"scale":[
				1,
				1.0000003576278687,
				1
			],
			"translation":[
				-0.48614501953125,
				-0.384601891040802,
				0.6464799642562866
			]
		},
		{
			"name":"Gun_R_07",
			"rotation":[
				-0.0025047140661627054,
				-0.707102358341217,
				-0.707102358341217,
				0.0025046668015420437
			],
			"scale":[
				1,
				1.0000003576278687,
				1
			],
			"translation":[
				-0.1573486328125,
				-0.3357737958431244,
				1.3554643392562866
			]
		},
		{
			"children":[
				3,
				4
			],
			"name":"Arm_R_05",
			"rotation":[
				1.6621774534542055e-07,
				0,
				0,
				1
			],
			"translation":[
				-1.01519775390625,
				0.9300587773323059,
				0.11780336499214172
			]
		},
		{
			"name":"Camera_08",
			"rotation":[
				-9.15082055144012e-05,
				-9.548752188948129e-08,
				-0.9999962449073792,
				0.0027363274712115526
			],
			"scale":[
				1.0000001192092896,
				1,
				1
			],
			"translation":[
				0.0052490234375,
				-0.01330110989511013,
				1.4991507530212402
			]
		},
		{
			"name":"PistonU3_L_010",
			"rotation":[
				-0.1356489062309265,
				-3.0307412089314312e-05,
				4.13179714087164e-06,
				0.9907569289207458
			],
			"scale":[
				1,
				1.0000001192092896,
				1.0000001192092896
			],
			"translation":[
				0.04981296882033348,
				1.341552734375,
				1.0225532054901123
			]
		},
		{
			"name":"PistonU1_L_011",
			"rotation":[
				0.5730859637260437,
				-0.003424092661589384,
				0.00164440693333745,
				0.8194864988327026
			],
			"scale":[
				1,
				1,
				1.0000001192092896
			],
			"translation":[
				0.09784777462482452,
				0.618896484375,
				-0.14395064115524292
			]
		},
		{
			"name":"PistonU2_L_012",
			"rotation":[
				0.5730859041213989,
				-0.0034240935929119587,
				0.0016444100765511394,
				0.8194864988327026
			],
			"scale":[
				1,
				1.0000001192092896,
				1.0000001192092896
			],
			"translation":[
				-0.015006229281425476,
				0.618896484375,
				-0.1439506560564041
			]
		},
		{
			"name":"F1_L_016",
			"rotation":[
				-0.0026026873383671045,
				0.7046867609024048,
				-0.7094160318374634,
				0.011779517866671085
			],
			"scale":[
				1,
				1,
				0.9999999403953552
			],
			"translation":[
				0.00714111328125,
				0.2837972640991211,
				-0.2035198211669922
			]
		},
		{
			"name":"F4_L_017",
			"rotation":[
				0.7000781297683716,
				0.009689799509942532,
				0.004563214723020792,
				0.7139859795570374
			],
			"scale":[
				1,
				0.9999999403953552,
				0.9999999403953552
			],
			"translation":[
				-0.0089874267578125,
				0.20601844787597656,
				0.1869668960571289
			]
		},
		{
			"name":"F3_L_018",
			"rotation":[
				0.4966489374637604,
				0.4999304711818695,
				-0.4930988848209381,
				0.5101596713066101
			],
			"scale":[
				0.9999998807907104,
				0.9999999403953552,
				0.9999999403953552
			],
			"translation":[
				0.2150115966796875,
				0.28916168212890625,
				-0.03569984436035156
			]
		},
		{
			"name":"F2_L_019",
			"rotation":[
				0.49759164452552795,
				-0.4975224733352661,
				0.5124613046646118,
				0.49219655990600586
			],
			"scale":[
				1,
				1.000000238418579,
				0.9999999403953552
			],
			"translation":[
				-0.24871826171875,
				0.2777261734008789,
				-0.045497894287109375
			]
		},
		{
			"name":"PistonB3_L_020",
			"rotation":[
				0.8787517547607422,
				0.0040360004641115665,
				0.013853856362402439,
				0.477061003446579
			],
			"scale":[
				1,
				0.9999999403953552,
				1.0000001192092896
			],
			"translation":[
				0.00506591796875,
				-0.04213142395019531,
				0.1468334197998047
			]
		},
		{
			"children":[
				10,
				11,
				12,
				13,
				14
			],
			"name":"O_L_015",
			"rotation":[
				0.32230329513549805,
				0.009054969064891338,
				-0.0026814218144863844,
				0.9465893507003784
			],
			"scale":[
				1,
				0.9999999403953552,
				1.0000001192092896
			],
			"translation":[
				3.4332275390625e-05,
				0.8853747844696045,
				-0.0012240409851074219
			]
		},
		{
			"name":"PistonB1_L_021",
			"rotation":[
				-0.8253186941146851,
				-0.0046187047846615314,
				-0.002606458030641079,
				0.5646423101425171
			],
			"scale":[
				0.9999999403953552,
				0.9999998807907104,
				0.9999998807907104
			],
			"translation":[
				0.05764007568359375,
				-0.12854695320129395,
				-0.20630550384521484
			]
		},
		{
			"name":"PistonB2_L_022",
			"rotation":[
				-0.8253187537193298,
				-0.004618708044290543,
				-0.002606455236673355,
				0.5646421909332275
			],
			"scale":[
				0.9999999403953552,
				1,
				1
			],
			"translation":[
				-0.04801177978515625,
				-0.12904143333435059,
				-0.20731115341186523
			]
		},
		{
			"children":[
				15,
				16,
				17
			],
			"name":"Low_Leg_L_014",
			"rotation":[
				-0.7620753049850464,
				-0.07357877492904663,
				-0.09482540935277939,
				0.6362668871879578
			],
			"scale":[
				1.0000001192092896,
				1,
				0.9999999403953552
			],
			"translation":[
				-0.0150146484375,
				0.8076171875,
				-0.0055999755859375
			]
		},
		{
			"children":[
				18
			],
			"name":"Mid_Leg_L_013",
			"rotation":[
				0.7698149085044861,
				0.07380561530590057,
				0.09054652601480484,
				0.6274863481521606
			],
			"translation":[
				0.05457383021712303,
				1.170654296875,
				-0.0008842383394949138
			]
		},
		{
			"children":[
				7,
				8,
				9,
				19
			],
			"name":"Top_Leg_L_09",
			"rotation":[
				0.9440242052078247,
				1.966214568938085e-08,
				5.6268202541787105e-08,
				0.32987621426582336
			],
			"scale":[
				1,
				1,
				0.9999998211860657
			],
			"translation":[
				0.77008056640625,
				0.0003713006153702736,
				0.0006155585870146751
			]
		},
		{
			"name":"PistonU3_R_024",
			"rotation":[
				-0.8624540567398071,
				0.023411022499203682,
				-0.007206747308373451,
				0.5055422782897949
			],
			"scale":[
				1,
				1,
				1.000000238418579
			],
			"translation":[
				-0.00787353515625,
				0.9703254699707031,
				-0.37475013732910156
			]
		},
		{
			"name":"F1_R_027",
			"rotation":[
				-0.00260268640704453,
				-0.7046868205070496,
				0.7094159722328186,
				0.01177952066063881
			],
			"scale":[
				1,
				1,
				0.9999998807907104
			],
			"translation":[
				-0.00726318359375,
				0.28472042083740234,
				-0.2033233642578125
			]
		},
		{
			"name":"F4_R_028",
			"rotation":[
				0.7000783085823059,
				-0.009689804166555405,
				-0.004563214257359505,
				0.713985800743103
			],
			"translation":[
				0.0088958740234375,
				0.20693683624267578,
				0.1866598129272461
			]
		},
		{
			"name":"F3_R_029",
			"rotation":[
				0.4966488778591156,
				-0.49993041157722473,
				0.4930989444255829,
				0.5101596713066101
			],
			"scale":[
				0.9999998807907104,
				0.9999999403953552,
				0.9999998807907104
			],
			"translation":[
				-0.2151336669921875,
				0.2900838851928711,
				-0.035503387451171875
			]
		},
		{
			"name":"F2_R_030",
			"rotation":[
				0.49759143590927124,
				0.497522234916687,
				-0.5124614834785461,
				0.4921965003013611
			],
			"scale":[
				1.0000001192092896,
				1.0000003576278687,
				1
			],
			"translation":[
				0.248626708984375,
				0.27864933013916016,
				-0.04531669616699219
			]
		},
		{
			"name":"PistonB3_R_031",
			"rotation":[
				0.8787517547607422,
				-0.00403599813580513,
				-0.013853855431079865,
				0.4770609736442566
			],
			"translation":[
				-0.005157470703125,
				-0.04120826721191406,
				0.14652633666992188
			]
		},
		{
			"children":[
				22,
				23,
				24,
				25,
				26
			],
			"name":"O_R_026",
			"rotation":[
				0.32203349471092224,
				-0.009054610505700111,
				0.0026826849207282066,
				0.9466812014579773
			],
			"scale":[
				0.9999998807907104,
				1.0000001192092896,
				0.9999999403953552
			],
			"translation":[
				-7.82012939453125e-05,
				0.8822381496429443,
				-0.0013375282287597656
			]
		},
		{
			"children":[
				27
			],
			"name":"Low_Leg_R_025",
			"rotation":[
				-0.7674829363822937,
				0.020690036937594414,
				-0.005762563087046146,
				0.6407094597816467
			],
			"scale":[
				0.9999998807907104,
				0.9999998211860657,
				0.9999998807907104
			],
			"translation":[
				9.1552734375e-05,
				0.8091392517089844,
				-0.0042743682861328125
			]
		},
		{
			"name":"PistonB2_R_032",
			"rotation":[
				0.961775004863739,
				-0.02138449065387249,
				-0.011965412646532059,
				0.272742360830307
			],
			"scale":[
				0.9999998807907104,
				0.9999997615814209,
				0.9999988079071045
			],
			"translation":[
				-0.061676025390625,
				0.6315879821777344,
				0.1623668670654297
			]
		},
		{
			"name":"PistonB1_R_033",
			"rotation":[
				0.9617750644683838,
				-0.021384507417678833,
				-0.011965470388531685,
				0.2727421224117279
			],
			"scale":[
				0.9999999403953552,
				0.9999998807907104,
				1.0000001192092896
			],
			"translation":[
				0.043853759765625,
				0.6265525817871094,
				0.16116809844970703
			]
		},
		{
			"children":[
				21,
				28,
				29,
				30
			],
			"name":"Mid_Leg_R_00",
			"rotation":[
				0.7748500108718872,
				-0.022063633427023888,
				0.010661708191037178,
				0.6316700577735901
			],
			"scale":[
				0.9999999403953552,
				1,
				1
			],
			"translation":[
				-5.2632822189480066e-05,
				1.170654296875,
				-0.0008844285039231181
			]
		},
		{
			"name":"PistonU2_R_034",
			"rotation":[
				0.5730859637260437,
				0.0034239976666867733,
				-0.0016443439526483417,
				0.8194864988327026
			],
			"scale":[
				1,
				1.0000001192092896,
				1.0000001192092896
			],
			"translation":[
				-0.09795300662517548,
				0.618896484375,
				-0.14395084977149963
			]
		},
		{
			"name":"PistonU1_R_035",
			"rotation":[
				0.5730859637260437,
				0.0034239941742271185,
				-0.001644341042265296,
				0.8194864988327026
			],
			"scale":[
				1,
				1.0000001192092896,
				1.0000001192092896
			],
			"translation":[
				0.014900997281074524,
				0.618896484375,
				-0.14395083487033844
			]
		},
		{
			"children":[
				31,
				32,
				33
			],
			"name":"Top_Leg_R_023",
			"rotation":[
				0.9440242052078247,
				1.966214568938085e-08,
				5.6268202541787105e-08,
				0.32987621426582336
			],
			"scale":[
				1,
				1,
				0.9999998211860657
			],
			"translation":[
				-0.77020263671875,
				0.0003713006153702736,
				0.0006155585870146751
			]
		},
		{
			"children":[
				2,
				5,
				6,
				20,
				34
			],
			"name":"Root_01",
			"rotation":[
				-7.105427357601002e-15,
				-1.7114272665708086e-08,
				5.293955920339377e-23,
				1
			],
			"translation":[
				773.6466674804688,
				23896.873046875,
				-6499.541015625
			]
		},
		{
			"children":[
				35
			],
			"name":"_rootJoint",
			"rotation":[
				-1.724699245642114e-07,
				1.7114272665708086e-08,
				-2.843123897457709e-15,
				1
			],
			"translation":[
				0,
				7.69211361273392e-11,
				-0.01562461443245411
			]
		},
		{
			"mesh":0,
			"name":"heavy_mech_43",
			"skin":0
		},
		{
			"mesh":1,
			"name":"heavy_mech_44",
			"skin":0
		},
		{
			"mesh":2,
			"name":"heavy_mech_45",
			"skin":0
		},
		{
			"children":[
				37,
				38,
				39,
				36
			],
			"name":"heavy_mech_rig"
		}
	],
	"materials":[
		{
			"doubleSided":true,
			"emissiveFactor":[
				1,
				1,
				1
			],
			"emissiveTexture":{
				"index":0
			},
			"extensions":{
				"KHR_materials_specular":{
					"specularFactor":0.3762229382991791
				}
			},
			"name":"Blue",
			"normalTexture":{
				"index":1
			},
			"occlusionTexture":{
				"index":2
			},
			"pbrMetallicRoughness":{
				"baseColorTexture":{
					"index":3
				},
				"metallicRoughnessTexture":{
					"index":2
				}
			}
		},
		{
			"doubleSided":true,
			"emissiveFactor":[
				1,
				1,
				1
			],
			"emissiveTexture":{
				"index":4
			},
			"name":"Green",
			"normalTexture":{
				"index":5
			},
			"occlusionTexture":{
				"index":6
			},
			"pbrMetallicRoughness":{
				"baseColorTexture":{
					"index":7
				},
				"metallicRoughnessTexture":{
					"index":6
				}
			}
		},
		{
			"doubleSided":true,
			"emissiveFactor":[
				1,
				1,
				1
			],
			"emissiveTexture":{
				"index":8
			},
			"extensions":{
				"KHR_materials_specular":{
					"specularFactor":0.30000001192092896
				}
			},
			"name":"Pink",
			"normalTexture":{
				"index":9
			},
			"occlusionTexture":{
				"index":10
			},
			"pbrMetallicRoughness":{
				"baseColorTexture":{
					"index":11
				},
				"metallicRoughnessTexture":{
					"index":10
				}
			}
		}
	],
	"meshes":[
		{
			"name":"W9231_low_Blue_0",
			"primitives":[
				{
					"attributes":{
						"POSITION":0,
						"NORMAL":1,
						"TEXCOORD_0":2,
						"TEXCOORD_1":3,
						"TEXCOORD_2":4,
						"JOINTS_0":5,
						"WEIGHTS_0":6
					},
					"indices":7,
					"material":0
				}
			]
		},
		{
			"name":"W9231_low_Green_0",
			"primitives":[
				{
					"attributes":{
						"POSITION":9,
						"NORMAL":10,
						"TEXCOORD_0":11,
						"TEXCOORD_1":12,
						"TEXCOORD_2":13,
						"JOINTS_0":14,
						"WEIGHTS_0":15
					},
					"indices":16,
					"material":1
				}
			]
		},
		{
			"name":"W9231_low_Pink_0",
			"primitives":[
				{
					"attributes":{
						"POSITION":17,
						"NORMAL":18,
						"TEXCOORD_0":19,
						"TEXCOORD_1":20,
						"TEXCOORD_2":21,
						"JOINTS_0":22,
						"WEIGHTS_0":23
					},
					"indices":24,
					"material":2
				}
			]
		}
	],
	"textures":[
		{
			"sampler":0,
			"source":0
		},
		{
			"sampler":0,
			"source":1
		},
		{
			"sampler":0,
			"source":2
		},
		{
			"sampler":0,
			"source":3
		},
		{
			"sampler":0,
			"source":4
		},
		{
			"sampler":0,
			"source":5
		},
		{
			"sampler":0,
			"source":6
		},
		{
			"sampler":0,
			"source":7
		},
		{
			"sampler":0,
			"source":8
		},
		{
			"sampler":0,
			"source":9
		},
		{
			"sampler":0,
			"source":10
		},
		{
			"sampler":0,
			"source":11
		}
	],
	"images":[
		{
			"mimeType":"image/png",
			"name":"Blue_emissive",
			"uri":"Blue_emissive.png"
		},
		{
			"mimeType":"image/png",
			"name":"Blue_normal",
			"uri":"Blue_normal.png"
		},
		{
			"mimeType":"image/png",
			"name":"Blue_metallicRoughness",
			"uri":"Blue_metallicRoughness.png"
		},
		{
			"mimeType":"image/png",
			"name":"Blue_baseColor",
			"uri":"Blue_baseColor.png"
		},
		{
			"mimeType":"image/png",
			"name":"Green_emissive",
			"uri":"Green_emissive.png"
		},
		{
			"mimeType":"image/png",
			"name":"Green_normal",
			"uri":"Green_normal.png"
		},
		{
			"mimeType":"image/png",
			"name":"Green_metallicRoughness",
			"uri":"Green_metallicRoughness.png"
		},
		{
			"mimeType":"image/png",
			"name":"Green_baseColor",
			"uri":"Green_baseColor.png"
		},
		{
			"mimeType":"image/png",
			"name":"Pink_emissive",
			"uri":"Pink_emissive.png"
		},
		{
			"mimeType":"image/png",
			"name":"Pink_normal",
			"uri":"Pink_normal.png"
		},
		{
			"mimeType":"image/png",
			"name":"Pink_metallicRoughness",
			"uri":"Pink_metallicRoughness.png"
		},
		{
			"mimeType":"image/png",
			"name":"Pink_baseColor",
			"uri":"Pink_baseColor.png"
		}
	],
	"skins":[
		{
			"inverseBindMatrices":8,
			"joints":[
				36,
				35,
				2,
				0,
				1,
				5,
				3,
				4,
				6,
				20,
				7,
				8,
				9,
				19,
				18,
				15,
				10,
				11,
				12,
				13,
				14,
				16,
				17,
				34,
				31,
				21,
				28,
				27,
				22,
				23,
				24,
				25,
				26,
				29,
				30,
				32,
				33
			],
			"name":"heavy_mech_rig"
		}
	],
	"accessors":[
		{
			"bufferView":0,
			"componentType":5126,
			"count":9752,
			"max":[
				774.4533081054688,
				23898.798828125,
				-6497.6640625
			],
			"min":[
				772.839111328125,
				23896.251953125,
				-6500.4521484375
			],
			"type":"VEC3"
		},
		{
			"bufferView":1,
			"componentType":5126,
			"count":9752,
			"type":"VEC3"
		},
		{
			"bufferView":2,
			"componentType":5126,
			"count":9752,
			"type":"VEC2"
		},
		{
			"bufferView":3,
			"componentType":5126,
			"count":9752,
			"type":"VEC2"
		},
		{
			"bufferView":4,
			"componentType":5126,
			"count":9752,
			"type":"VEC2"
		},
		{
			"bufferView":5,
			"componentType":5121,
			"count":9752,
			"type":"VEC4"
		},
		{
			"bufferView":6,
			"componentType":5126,
			"count":9752,
			"type":"VEC4"
		},
		{
			"bufferView":7,
			"componentType":5123,
			"count":19806,
			"type":"SCALAR"
		},
		{
			"bufferView":8,
			"componentType":5126,
			"count":37,
			"type":"MAT4"
		},
		{
			"bufferView":9,
			"componentType":5126,
			"count":24831,
			"max":[
				775.5289306640625,
				23898.8828125,
				-6497.451171875
			],
			"min":[
				771.7634887695312,
				23896.646484375,
				-6500.224609375
			],
			"type":"VEC3"
		},
		{
			"bufferView":10,
			"componentType":5126,
			"count":24831,
			"type":"VEC3"
		},
		{
			"bufferView":11,
			"componentType":5126,
			"count":24831,
			"type":"VEC2"
		},
		{
			"bufferView":12,
			"componentType":5126,
			"count":24831,
			"type":"VEC2"
		},
		{
			"bufferView":13,
			"componentType":5126,
			"count":24831,
			"type":"VEC2"
		},
		{
			"bufferView":14,
			"componentType":5121,
			"count":24831,
			"type":"VEC4"
		},
		{
			"bufferView":15,
			"componentType":5126,
			"count":24831,
			"type":"VEC4"
		},
		{
			"bufferView":16,
			"componentType":5123,
			"count":60888,
			"type":"SCALAR"
		},
		{
			"bufferView":17,
			"componentType":5126,
			"count":13698,
			"max":[
				774.9281005859375,
				23897.138671875,
				-6498.0966796875
			],
			"min":[
				772.3643798828125,
				23894.501953125,
				-6500.17431640625
			],
			"type":"VEC3"
		},
		{
			"bufferView":18,
			"componentType":5126,
			"count":13698,
			"type":"VEC3"
		},
		{
			"bufferView":19,
			"componentType":5126,
			"count":13698,
			"type":"VEC2"
		},
		{
			"bufferView":20,
			"componentType":5126,
			"count":13698,
			"type":"VEC2"
		},
		{
			"bufferView":21,
			"componentType":5126,
			"count":13698,
			"type":"VEC2"
		},
		{
			"bufferView":22,
			"componentType":5121,
			"count":13698,
			"type":"VEC4"
		},
		{
			"bufferView":23,
			"componentType":5126,
			"count":13698,
			"type":"VEC4"
		},
		{
			"bufferView":24,
			"componentType":5123,
			"count":25554,
			"type":"SCALAR"
		}
	],
	"bufferViews":[
		{
			"buffer":0,
			"byteLength":117024,
			"byteOffset":0,
			"target":34962
		},
		{
			"buffer":0,
			"byteLength":117024,
			"byteOffset":117024,
			"target":34962
		},
		{
			"buffer":0,
			"byteLength":78016,
			"byteOffset":234048,
			"target":34962
		},
		{
			"buffer":0,
			"byteLength":78016,
			"byteOffset":312064,
			"target":34962
		},
		{
			"buffer":0,
			"byteLength":78016,
			"byteOffset":390080,
			"target":34962
		},
		{
			"buffer":0,
			"byteLength":39008,
			"byteOffset":468096,
			"target":34962
		},
		{
			"buffer":0,
			"byteLength":156032,
			"byteOffset":507104,
			"target":34962
		},
		{
			"buffer":0,
			"byteLength":39612,
			"byteOffset":663136,
			"target":34963
		},
		{
			"buffer":0,
			"byteLength":2368,
			"byteOffset":702748
		},
		{
			"buffer":0,
			"byteLength":297972,
			"byteOffset":705116,
			"target":34962
		},
		{
			"buffer":0,
			"byteLength":297972,
			"byteOffset":1003088,
			"target":34962
		},
		{
			"buffer":0,
			"byteLength":198648,
			"byteOffset":1301060,
			"target":34962
		},
		{
			"buffer":0,
			"byteLength":198648,
			"byteOffset":1499708,
			"target":34962
		},
		{
			"buffer":0,
			"byteLength":198648,
			"byteOffset":1698356,
			"target":34962
		},
		{
			"buffer":0,
			"byteLength":99324,
			"byteOffset":1897004,
			"target":34962
		},
		{
			"buffer":0,
			"byteLength":397296,
			"byteOffset":1996328,
			"target":34962
		},
		{
			"buffer":0,
			"byteLength":121776,
			"byteOffset":2393624,
			"target":34963
		},
		{
			"buffer":0,
			"byteLength":164376,
			"byteOffset":2515400,
			"target":34962
		},
		{
			"buffer":0,
			"byteLength":164376,
			"byteOffset":2679776,
			"target":34962
		},
		{
			"buffer":0,
			"byteLength":109584,
			"byteOffset":2844152,
			"target":34962
		},
		{
			"buffer":0,
			"byteLength":109584,
			"byteOffset":2953736,
			"target":34962
		},
		{
			"buffer":0,
			"byteLength":109584,
			"byteOffset":3063320,
			"target":34962
		},
		{
			"buffer":0,
			"byteLength":54792,
			"byteOffset":3172904,
			"target":34962
		},
		{
			"buffer":0,
			"byteLength":219168,
			"byteOffset":3227696,
			"target":34962
		},
		{
			"buffer":0,
			"byteLength":51108,
			"byteOffset":3446864,
			"target":34963
		}
	],
	"samplers":[
		{
			"magFilter":9729,
			"minFilter":9987
		}
	],
	"buffers":[
		{
			"byteLength":3497972,
			"uri":"scene.bin"
		}
	]
}
