{
	"asset":{
		"generator":"Khronos glTF Blender I/O v5.1.20",
		"version":"2.0"
	},
	"scene":0,
	"scenes":[
		{
			"name":"Scene",
			"nodes":[
				0
			]
		}
	],
	"nodes":[
		{
			"mesh":0,
			"name":"medium_mech",
			"rotation":[
				0.005904188379645348,
				0.0020781108178198338,
				0.7057955265045166,
				0.7083879709243774
			],
			"translation":[
				0.001437067985534668,
				0.35384660959243774,
				-0.00657294038683176
			]
		}
	],
	"materials":[
		{
			"doubleSided":true,
			"name":"Material.005",
			"normalTexture":{
				"index":0,
				"texCoord":1
			},
			"pbrMetallicRoughness":{
				"baseColorTexture":{
					"index":1
				},
				"metallicRoughnessTexture":{
					"index":2
				}
			}
		}
	],
	"meshes":[
		{
			"name":"Cube.002_Material.005_0",
			"primitives":[
				{
					"attributes":{
						"POSITION":0,
						"NORMAL":1,
						"TEXCOORD_0":2,
						"TEXCOORD_1":3,
						"TEXCOORD_2":4
					},
					"indices":5,
					"material":0
				}
			]
		}
	],
	"textures":[
		{
			"sampler":0,
			"source":0
		},
		{
			"sampler":0,
			"source":1
		},
		{
			"sampler":0,
			"source":2
		}
	],
	"images":[
		{
			"mimeType":"image/png",
			"name":"Material",
			"uri":"Material.png"
		},
		{
			"mimeType":"image/png",
			"name":"Material",
			"uri":"Material-1.png"
		},
		{
			"mimeType":"image/png",
			"name":"Material",
			"uri":"Material-2.png"
		}
	],
	"accessors":[
		{
			"bufferView":0,
			"componentType":5126,
			"count":109259,
			"max":[
				0.2932577133178711,
				0.49877482652664185,
				0.4163663387298584
			],
			"min":[
				-0.3658381402492523,
				-0.5012251734733582,
				-0.39560481905937195
			],
			"type":"VEC3"
		},
		{
			"bufferView":1,
			"componentType":5126,
			"count":109259,
			"type":"VEC3"
		},
		{
			"bufferView":2,
			"componentType":5126,
			"count":109259,
			"type":"VEC2"
		},
		{
			"bufferView":3,
			"componentType":5126,
			"count":109259,
			"type":"VEC2"
		},
		{
			"bufferView":4,
			"componentType":5126,
			"count":109259,
			"type":"VEC2"
		},
		{
			"bufferView":5,
			"componentType":5125,
			"count":372138,
			"type":"SCALAR"
		}
	],
	"bufferViews":[
		{
			"buffer":0,
			"byteLength":1311108,
			"byteOffset":0,
			"target":34962
		},
		{
			"buffer":0,
			"byteLength":1311108,
			"byteOffset":1311108,
			"target":34962
		},
		{
			"buffer":0,
			"byteLength":874072,
			"byteOffset":2622216,
			"target":34962
		},
		{
			"buffer":0,
			"byteLength":874072,
			"byteOffset":3496288,
			"target":34962
		},
		{
			"buffer":0,
			"byteLength":874072,
			"byteOffset":4370360,
			"target":34962
		},
		{
			"buffer":0,
			"byteLength":1488552,
			"byteOffset":5244432,
			"target":34963
		}
	],
	"samplers":[
		{
			"magFilter":9729,
			"minFilter":9987
		}
	],
	"buffers":[
		{
			"byteLength":6732984,
			"uri":"scene.bin"
		}
	]
}
