{
	"asset":{
		"generator":"Khronos glTF Blender I/O v5.1.20",
		"version":"2.0"
	},
	"scene":0,
	"scenes":[
		{
			"name":"Scene",
			"nodes":[
				0
			]
		}
	],
	"nodes":[
		{
			"mesh":0,
			"name":"cbp2",
			"rotation":[
				0.70710688829422,
				0,
				0,
				0.7071066498756409
			],
			"translation":[
				-0.9966521263122559,
				0.18012237548828125,
				0.24674105644226074
			]
		}
	],
	"materials":[
		{
			"doubleSided":true,
			"name":"TeamPrimary",
			"pbrMetallicRoughness":{
				"baseColorFactor":[
					0.23100000619888306,
					0.4309999942779541,
					0.9139999747276306,
					1
				],
				"metallicFactor":0.05999999865889549,
				"roughnessFactor":0.8199999928474426
			}
		}
	],
	"meshes":[
		{
			"name":"cbp2.001",
			"primitives":[
				{
					"attributes":{
						"POSITION":0,
						"NORMAL":1
					},
					"indices":2,
					"material":0
				}
			]
		}
	],
	"accessors":[
		{
			"bufferView":0,
			"componentType":5126,
			"count":1225,
			"max":[
				0.4274710416793823,
				0.18511922657489777,
				-0.005731222685426474
			],
			"min":[
				-0.42987674474716187,
				-0.21850699186325073,
				-0.9634745121002197
			],
			"type":"VEC3"
		},
		{
			"bufferView":1,
			"componentType":5126,
			"count":1225,
			"type":"VEC3"
		},
		{
			"bufferView":2,
			"componentType":5123,
			"count":3594,
			"type":"SCALAR"
		}
	],
	"bufferViews":[
		{
			"buffer":0,
			"byteLength":14700,
			"byteOffset":0,
			"target":34962
		},
		{
			"buffer":0,
			"byteLength":14700,
			"byteOffset":14700,
			"target":34962
		},
		{
			"buffer":0,
			"byteLength":7188,
			"byteOffset":29400,
			"target":34963
		}
	],
	"buffers":[
		{
			"byteLength":36588,
			"uri":"scene.bin"
		}
	]
}
